<svg width="180" height="180" viewBox="0 0 180 180" fill="none" xmlns="http://www.w3.org/2000/svg">
  <rect width="180" height="180" rx="40" fill="#1e40af"/>
  <g fill="white">
    <!-- Letter L -->
    <path d="M30 30V150H50V80H70V60H50V30H30Z"/>
    
    <!-- Letter E -->
    <path d="M90 30V60H130V70H90V80H130V100H90V110H130V120H90V150H140V30H90Z"/>
    
    <!-- X symbol -->
    <path d="M150 45L145 40L140 45L135 40L130 45L135 50L130 55L135 60L140 55L145 60L150 55L145 50L150 45Z" fill="#60a5fa"/>
  </g>
  
  <!-- Subtle accent -->
  <rect x="20" y="20" width="140" height="140" rx="30" fill="none" stroke="#60a5fa" stroke-width="2" opacity="0.3"/>
</svg>
